HIERARCHY
ROOT Hips
{
	OFFSET -3.958830 18.904000 13.208200
	CHANNELS 6 Xposition Yposition Zposition Zrotation Yrotation Xrotation 
	JOINT LHipJoint
	{
		OFFSET 0.000000 0.000000 0.000000
		CHANNELS 3 Zrotation Yrotation Xrotation
		JOINT LeftUpLeg
		{
			OFFSET 1.800000 -1.400000 0.085000
			CHANNELS 3 Zrotation Yrotation Xrotation
			JOINT LeftLeg
			{
				OFFSET 2.215000 -6.000000 0.000000
				CHANNELS 3 Zrotation Yrotation Xrotation
				JOINT LeftFoot
				{
					OFFSET 2.500000 -6.900000 0.000000
					CHANNELS 3 Zrotation Yrotation Xrotation
					JOINT LeftToeBase
					{
						OFFSET 0.200000 -0.500000 1.950000
						CHANNELS 3 Zrotation Yrotation Xrotation
						End Site
						{
							OFFSET 0.000000 0.000000 0.000000
						}
					}
				}
			}
		}
	}
	JOINT RHipJoint
	{
		OFFSET 0.000000 0.000000 0.000000
		CHANNELS 3 Zrotation Yrotation Xrotation
		JOINT RightUpLeg
		{
			OFFSET -1.800000 -1.400000 0.085000
			CHANNELS 3 Zrotation Yrotation Xrotation
			JOINT RightLeg
			{
				OFFSET -2.215000 -6.000000 0.000000
				CHANNELS 3 Zrotation Yrotation Xrotation
				JOINT RightFoot
				{
					OFFSET -2.500000 -6.900000 0.000000
					CHANNELS 3 Zrotation Yrotation Xrotation
					JOINT RightToeBase
					{
						OFFSET -0.200000 -0.500000 1.950000
						CHANNELS 3 Zrotation Yrotation Xrotation
						End Site
						{
							OFFSET 0.000000 0.000000 0.000000
						}
					}
				}
			}
		}
	}
	JOINT LowerBack
	{
		OFFSET 0.000000 0.000000 0.000000
		CHANNELS 3 Zrotation Yrotation Xrotation
		JOINT Spine
		{
			OFFSET -0.087000 1.940000 -0.288900
			CHANNELS 3 Zrotation Yrotation Xrotation
			JOINT Spine1
			{
				OFFSET 0.000000 1.950000 0.060000
				CHANNELS 3 Zrotation Yrotation Xrotation
				JOINT Neck
				{
					OFFSET 0.000000 0.000000 0.000000
					CHANNELS 3 Zrotation Yrotation Xrotation
					JOINT Neck1
					{
						OFFSET 0.000000 1.600000 0.340000
						CHANNELS 3 Zrotation Yrotation Xrotation
						JOINT Head
						{
							OFFSET 0.000000 1.667000 -0.240000
							CHANNELS 3 Zrotation Yrotation Xrotation
							End Site
							{
								OFFSET 0.000000 0.000000 0.000000
							}
						}
					}
				}
				JOINT LeftShoulder
				{
					OFFSET 0.000000 0.000000 0.000000
					CHANNELS 3 Zrotation Yrotation Xrotation
					JOINT LeftArm
					{
						OFFSET 2.700000 1.550000 -0.730000
						CHANNELS 3 Zrotation Yrotation Xrotation
						JOINT LeftForeArm
						{
							OFFSET 5.450000 0.000000 0.000000
							CHANNELS 3 Zrotation Yrotation Xrotation
							JOINT LeftHand
							{
								OFFSET 3.450000 0.000000 0.000000
								CHANNELS 3 Zrotation Yrotation Xrotation
								JOINT LeftHandIndex1
								{
									OFFSET 0.750000 0.000000 0.000000
									CHANNELS 3 Zrotation Yrotation Xrotation
									End Site
									{
										OFFSET 0.000000 0.000000 0.000000
									}
								}
							}
						}
					}
				}
				JOINT RightShoulder
				{
					OFFSET 0.000000 0.000000 0.000000
					CHANNELS 3 Zrotation Yrotation Xrotation
					JOINT RightArm
					{
						OFFSET -2.700000 1.550000 -0.730000
						CHANNELS 3 Zrotation Yrotation Xrotation
						JOINT RightForeArm
						{
							OFFSET -5.450000 0.000000 0.000000
							CHANNELS 3 Zrotation Yrotation Xrotation
							JOINT RightHand
							{
								OFFSET -3.450000 0.000000 0.000000
								CHANNELS 3 Zrotation Yrotation Xrotation
								JOINT RightHandIndex1
								{
									OFFSET -0.750000 0.000000 0.000000
									CHANNELS 3 Zrotation Yrotation Xrotation
									End Site
									{
										OFFSET 0.000000 0.000000 0.000000
									}
								}
							}
						}
					}
				}
			}
		}
	}
}
MOTION
Frames: 12
Frame Time: 0.016667
-0.174120 17.017720 -0.713990 -2.078137 -30.062215 4.706255 -15.001560 13.981848 2.675431 8.301023 -1.715655 -12.441464 -4.979502 6.340533 18.305890 -0.410121 4.737713 3.084069 0.333860 -0.204840 0.468690 18.302034 -10.890108 2.592934 -9.380180 1.515218 -23.241707 7.400562 -7.008042 21.779750 -0.128370 -3.685694 3.239701 -0.139060 0.345810 0.437540 -3.588662 -2.682395 -6.744271 8.583095 -5.090264 2.799220 -7.178122 -4.441025 12.846726 2.568473 -0.971235 -13.581788 -6.141701 9.443825 52.900596 -7.156030 13.663570 4.105360 9.596250 -9.861811 7.485557 -60.328295 -18.647640 3.485676 -24.537562 -33.816942 4.159739 -3.808303 3.200595 0.535130 0.379800 -0.064050 0.158560 -14.868383 8.671051 6.283964 78.527799 17.931767 -0.577576 20.199805 23.803728 1.479287 1.844307 -1.908740 -0.176190 0.020110 -0.040040 -0.319940 
-0.175950 17.017870 -0.715060 -1.979684 -30.048656 4.644493 -14.999692 13.992270 2.683247 8.224513 -1.710485 -12.398556 -4.959909 6.322145 18.270513 -0.407899 4.714999 3.083368 0.341320 -0.194920 0.476650 18.300601 -10.889104 2.596016 -9.460009 1.503802 -23.293572 7.405080 -7.029652 21.869129 -0.134990 -3.682261 3.237420 -0.139520 0.326930 0.433970 -3.585969 -2.705319 -6.762629 8.623080 -5.115538 2.962358 -7.247968 -4.430686 12.806894 2.629279 -1.056806 -13.766381 -6.459051 9.527483 53.310331 -7.206490 13.619640 3.870560 9.268024 -10.311242 7.619708 -59.733221 -18.402855 3.202443 -24.594770 -34.132324 4.209141 -3.793283 3.191873 0.543950 0.364760 -0.051570 0.154210 -14.659084 9.226121 6.429298 77.995465 17.847157 -0.783340 20.329782 24.079423 1.516370 1.855390 -1.896896 -0.168780 0.016160 -0.044490 -0.321880 
-0.179030 17.018440 -0.717220 -1.823263 -30.041330 4.515120 -14.993806 14.011504 2.698799 8.112223 -1.700172 -12.307988 -4.950997 6.298341 18.210756 -0.402454 4.680538 3.083019 0.356690 -0.175490 0.493610 18.299808 -10.889706 2.601226 -9.587317 1.485643 -23.377946 7.387730 -7.070725 22.086533 -0.151230 -3.678222 3.230132 -0.139850 0.295310 0.428080 -3.587694 -2.744532 -6.797971 8.764218 -5.178839 3.326571 -7.410677 -4.419573 12.715149 2.745320 -1.248716 -14.087135 -7.117796 9.733477 54.006336 -7.255070 13.497140 3.351970 8.557423 -11.110525 7.866058 -58.612039 -17.862090 2.611568 -24.613716 -34.789515 4.280765 -3.764985 3.172814 0.561980 0.336010 -0.026830 0.148270 -14.173124 10.244241 6.677565 76.908300 17.677906 -1.153554 20.642541 24.544900 1.602725 1.878049 -1.870738 -0.156000 0.013620 -0.053670 -0.323920 
-0.183750 17.016360 -0.719620 -1.655017 -30.020602 4.380676 -14.984003 14.035629 2.717370 7.994190 -1.681780 -12.179835 -4.925065 6.258404 18.095091 -0.396407 4.635104 3.085434 0.375050 -0.153070 0.512600 18.300679 -10.889744 2.612504 -9.730064 1.477216 -23.515481 7.397079 -7.134972 22.381957 -0.172725 -3.677309 3.220911 -0.140960 0.257560 0.421400 -3.596612 -2.790701 -6.845444 9.026133 -5.266466 3.815260 -7.625641 -4.407197 12.569353 2.913602 -1.534039 -14.498898 -8.056311 10.003991 54.749054 -7.379110 13.294970 2.669650 7.584020 -12.080091 8.190569 -57.151458 -17.025582 1.778746 -24.760963 -35.802873 4.431727 -3.727289 3.150868 0.585790 0.300330 0.004250 0.143420 -13.520111 11.529936 7.008985 75.366189 17.359176 -1.678561 21.287963 25.190077 1.770573 1.903924 -1.836795 -0.141160 0.012130 -0.064900 -0.325790 
-0.189180 17.011770 -0.723250 -1.507558 -30.030880 4.233251 -14.968996 14.065419 2.739542 7.905562 -1.654812 -12.011776 -4.909132 6.215442 17.926302 -0.392772 4.591268 3.089799 0.394190 -0.131980 0.529650 18.304506 -10.888122 2.629374 -9.870518 1.487839 -23.687597 7.421180 -7.217954 22.768880 -0.195094 -3.685535 3.210708 -0.141790 0.222620 0.412590 -3.617552 -2.847883 -6.904125 9.456402 -5.396508 4.509258 -7.896693 -4.406134 12.356345 3.097109 -1.970555 -14.942525 -9.352556 10.454607 55.186416 -7.418260 13.006890 1.892590 6.358339 -13.070862 8.554465 -55.434393 -15.861926 0.711179 -25.108042 -37.206853 4.686406 -3.685570 3.130322 0.612520 0.263430 0.032630 0.140090 -12.634766 12.952912 7.377165 73.413667 16.865668 -2.373032 22.256907 26.053439 2.022528 1.928873 -1.797481 -0.128960 0.014410 -0.074850 -0.328040 
-0.195860 17.004920 -0.727610 -1.378358 -30.008057 4.075757 -14.949872 14.101100 2.765283 7.858920 -1.633650 -11.872492 -4.909648 6.187828 17.825277 -0.386572 4.553946 3.090496 0.412900 -0.108200 0.540370 18.310352 -10.886142 2.648347 -9.981322 1.504099 -23.846395 7.430180 -7.296202 23.178263 -0.217539 -3.694928 3.199297 -0.140190 0.187240 0.402400 -3.646768 -2.916143 -6.970113 10.012648 -5.583289 5.374469 -8.226598 -4.429645 12.088311 3.299989 -2.515043 -15.411545 -10.902728 11.020955 55.252490 -7.359650 12.628500 1.026940 4.975755 -14.015047 8.933248 -53.623228 -14.432744 -0.518385 -25.652060 -38.851405 5.034296 -3.637543 3.118109 0.638280 0.224240 0.060910 0.138570 -11.620995 14.406076 7.790653 71.193785 16.141662 -3.256522 23.666195 27.197129 2.388601 1.953117 -1.761671 -0.116500 0.015990 -0.084970 -0.327460 
-0.205260 16.994280 -0.732370 -1.207429 -30.031208 3.920653 -14.934009 14.136864 2.796552 7.835798 -1.626326 -11.791479 -5.007645 6.206496 17.809033 -0.382479 4.541973 3.087047 0.423830 -0.094870 0.544120 18.312503 -10.877532 2.671186 -10.117443 1.541787 -24.062735 7.463076 -7.388832 23.642262 -0.235240 -3.714719 3.189121 -0.140860 0.162160 0.388320 -3.663415 -2.995139 -7.044545 10.470966 -5.766013 6.359956 -8.481137 -4.438622 11.738779 3.506673 -3.110546 -15.844119 -12.499708 11.603447 54.802603 -7.266140 12.233780 0.156920 3.464469 -14.779639 9.267043 -51.786147 -12.757501 -1.822386 -26.542627 -40.685564 5.542083 -3.593535 3.107204 0.664180 0.190260 0.080240 0.137670 -10.458416 15.739034 8.214959 68.781002 15.172745 -4.263308 25.483699 28.542728 2.884013 1.971478 -1.724440 -0.112880 0.024060 -0.089930 -0.327880 
-0.215350 16.981240 -0.736370 -1.118388 -30.078809 3.825740 -14.913946 14.171575 2.825265 7.895703 -1.629589 -11.779239 -5.112722 6.245337 17.882814 -0.364715 4.535655 3.082472 0.433490 -0.080750 0.544270 18.318500 -10.867224 2.699837 -10.185264 1.610742 -24.305148 7.514535 -7.490042 24.165593 -0.252601 -3.743210 3.176391 -0.144650 0.140210 0.376780 -3.693683 -3.069630 -7.117158 11.090672 -5.984671 7.424427 -8.811745 -4.453321 11.308577 3.725557 -3.768648 -16.255383 -14.173426 12.174291 53.836953 -7.066970 11.779080 -0.635250 1.847134 -15.380754 9.565355 -49.982953 -10.891008 -3.155490 -27.685322 -42.621738 6.193106 -3.549230 3.112292 0.679660 0.157920 0.097280 0.138900 -9.208966 16.951571 8.655621 66.225832 13.953904 -5.357749 27.794705 30.101252 3.545834 1.993523 -1.698746 -0.102390 0.026750 -0.097430 -0.321540 
-0.226920 16.965950 -0.739560 -1.072542 -30.104525 3.783515 -14.896055 14.205907 2.851961 8.031192 -1.656859 -11.884971 -5.236473 6.313502 18.100491 -0.344247 4.549156 3.072599 0.437730 -0.072070 0.536410 18.323504 -10.849654 2.729692 -10.227391 1.695311 -24.562133 7.593980 -7.600479 24.695829 -0.267753 -3.780593 3.160560 -0.149650 0.126370 0.367170 -3.720148 -3.153918 -7.184732 11.722442 -6.237494 8.526109 -9.117458 -4.487381 10.797206 3.925370 -4.449168 -16.605284 -15.804241 12.675348 52.371166 -6.775640 11.280710 -1.376610 0.278719 -15.785817 9.766949 -48.298536 -9.069288 -4.317967 -29.042456 -44.199517 6.906023 -3.511944 3.125223 0.689800 0.130590 0.108450 0.142080 -7.958680 17.968553 9.093673 63.670205 12.511543 -6.477814 30.519909 31.767280 4.372396 2.011974 -1.683800 -0.093640 0.028840 -0.101740 -0.312140 
-0.240290 16.951640 -0.742380 -1.118657 -30.104181 3.752209 -14.879539 14.239332 2.877291 8.309611 -1.692018 -12.010451 -5.433232 6.425171 18.390789 -0.318987 4.590964 3.057112 0.439660 -0.068170 0.526360 18.327683 -10.829973 2.756527 -10.188765 1.793940 -24.736275 7.679457 -7.717099 25.244767 -0.281773 -3.828687 3.145254 -0.156080 0.120770 0.359570 -3.743370 -3.239749 -7.247271 12.379495 -6.533730 9.687592 -9.406402 -4.546495 10.230510 4.121139 -5.103764 -16.910594 -17.272201 13.082861 50.622987 -6.419470 10.794410 -1.986690 -1.333738 -16.114671 9.905159 -46.670582 -7.262820 -5.353070 -30.458485 -45.382919 7.600513 -3.482747 3.139744 0.695310 0.110060 0.113600 0.147620 -6.647464 18.875432 9.532769 61.103781 10.921487 -7.553479 33.519000 33.409602 5.329835 2.027997 -1.676223 -0.086550 0.031080 -0.105900 -0.301670 
-0.255680 16.938790 -0.743280 -1.194841 -30.100223 3.794407 -14.866353 14.268293 2.898096 8.613086 -1.734659 -12.203395 -5.597780 6.539714 18.728562 -0.290857 4.639774 3.043390 0.430800 -0.076540 0.508720 18.330361 -10.808398 2.783996 -10.112077 1.907539 -24.915312 7.765313 -7.820475 25.734835 -0.288263 -3.876972 3.133683 -0.167350 0.124490 0.352000 -3.759964 -3.316436 -7.301024 12.991478 -6.819799 10.753434 -9.713602 -4.591331 9.608324 4.340193 -5.672725 -17.144437 -18.378058 13.290400 48.628280 -6.154390 10.411460 -2.264030 -2.984472 -16.279148 9.968063 -45.223056 -5.429464 -6.293769 -31.755641 -46.274873 8.231708 -3.463819 3.156561 0.692450 0.098820 0.109920 0.154000 -5.346045 19.562939 9.951048 58.812089 9.198307 -8.569044 36.551952 34.968667 6.355650 2.042587 -1.677726 -0.083700 0.031770 -0.106950 -0.290090 
-0.274280 16.927290 -0.742340 -1.325377 -30.068849 3.944662 -14.858042 14.287154 2.915151 8.997689 -1.784924 -12.465790 -5.796091 6.670547 19.058244 -0.265992 4.708753 3.029887 0.409690 -0.101640 0.480410 18.331762 -10.781566 2.809566 -9.953749 2.041788 -25.067417 7.861884 -7.899520 26.101892 -0.284270 -3.921882 3.129978 -0.181880 0.145220 0.345450 -3.770264 -3.381388 -7.343046 13.545396 -7.080738 11.632812 -9.970370 -4.631764 8.956661 4.537047 -6.151079 -17.249800 -19.068589 13.310277 46.416785 -5.925260 10.111590 -2.091180 -4.692127 -16.277080 9.926477 -44.017532 -3.681824 -7.084763 -32.585242 -46.682839 8.604061 -3.462476 3.169410 0.682050 0.102910 0.091830 0.162830 -3.954192 20.004432 10.307286 56.736677 7.426685 -9.433860 39.376938 36.252532 7.349902 2.051207 -1.683486 -0.090350 0.034700 -0.101290 -0.279360 
